<?xml version="1.0" standalone="no"?>
<!DOCTYPE svg PUBLIC "-//W3C//DTD SVG 20010904//EN"
 "http://www.w3.org/TR/2001/REC-SVG-20010904/DTD/svg10.dtd">
<svg version="1.0" xmlns="http://www.w3.org/2000/svg"
 width="768.000000pt" height="768.000000pt" viewBox="0 0 768.000000 768.000000"
 preserveAspectRatio="xMidYMid meet">

<g transform="translate(0.000000,768.000000) scale(0.100000,-0.100000)"
fill="#000000" stroke="none">
<path d="M3915 6994 c-150 -26 -259 -64 -421 -144 -258 -126 -454 -290 -524
-437 -17 -35 -34 -63 -39 -63 -5 0 -31 -20 -58 -44 -54 -49 -97 -129 -112
-213 -27 -138 75 -328 231 -433 95 -63 106 -76 90 -100 -9 -15 -9 -20 0 -20 6
0 9 -3 6 -6 -4 -3 12 -23 35 -45 23 -21 36 -39 29 -39 -10 0 -9 -4 2 -16 23
-22 22 -149 -2 -212 -10 -26 -42 -83 -71 -126 -104 -154 -139 -267 -120 -391
28 -183 199 -353 405 -401 38 -9 150 -21 249 -27 l180 -12 -80 -33 c-149 -62
-200 -89 -267 -139 -37 -28 -69 -48 -73 -45 -3 4 -3 -1 0 -9 13 -34 -19 -41
-192 -42 l-168 -1 163 -3 c89 -2 162 -5 162 -7 0 -1 -13 -29 -29 -62 -32 -65
-84 -242 -102 -346 -7 -43 -15 -66 -22 -61 -6 3 -7 1 -3 -6 10 -15 -53 -352
-69 -371 -20 -24 -95 -241 -95 -277 0 -41 43 -92 116 -136 54 -32 54 -32 49
-72 -9 -64 -35 -561 -35 -666 l0 -95 -307 4 c-170 2 -316 8 -325 13 -10 5 -21
32 -28 66 -6 32 -16 77 -21 99 -5 23 -20 109 -33 191 -14 82 -25 153 -26 158
-2 6 -2 21 -1 34 1 20 3 21 16 11 12 -10 15 -9 15 4 0 9 18 34 40 56 22 22 40
44 40 49 0 14 -38 33 -50 26 -6 -3 -10 -1 -10 5 0 6 -4 9 -9 5 -5 -3 -12 -1
-16 5 -3 5 -17 10 -29 10 -33 0 -43 16 -56 90 -25 144 -92 483 -120 612 -17
75 -30 139 -30 142 0 3 54 6 120 6 118 0 156 11 83 25 -20 3 -75 5 -122 4 -83
-3 -85 -3 -92 21 -10 36 -10 72 0 66 7 -4 388 -8 443 -4 13 1 15 6 8 18 -5 10
-6 21 -2 25 4 4 -2 3 -13 -3 -11 -5 -114 -11 -233 -13 l-213 -4 -23 68 c-36
107 -88 147 -193 147 l-42 0 -4 73 -3 72 -2 -75 -2 -75 -277 -23 c-153 -13
-397 -32 -541 -43 -145 -11 -273 -24 -284 -30 -25 -13 -48 -68 -48 -113 0 -44
103 -530 255 -1201 19 -82 43 -202 55 -265 11 -63 23 -127 26 -143 l6 -27 -96
0 c-57 0 -96 -4 -96 -10 0 -6 39 -10 98 -10 l97 0 43 -207 c23 -115 45 -219
48 -233 3 -14 2 -21 -3 -15 -11 14 -25 16 -115 17 -67 1 -78 4 -73 17 5 12 3
12 -13 -2 -13 -12 -36 -17 -80 -17 -34 0 -62 -4 -62 -9 0 -8 133 -18 306 -24
l51 -1 27 -121 c15 -66 30 -131 33 -144 l6 -24 -379 5 c-208 2 -392 1 -409 -2
-16 -4 157 -8 386 -9 229 0 429 -4 445 -7 29 -5 29 -6 26 -65 l-4 -59 -303 0
c-271 0 -338 -5 -308 -23 5 -3 67 -6 138 -7 480 -9 1012 -22 1025 -26 26 -9
-10 -24 -57 -24 -49 0 -52 -6 -28 -84 l15 -48 -283 3 c-155 2 -432 2 -616 1
-281 -2 -332 -4 -322 -16 9 -11 147 -15 774 -20 l762 -7 70 -34 70 -33 -704
-1 c-387 -1 -701 -4 -697 -8 9 -9 1354 -25 2276 -27 873 -1 2815 16 2765 25
-22 4 -331 8 -686 8 -355 1 -667 4 -692 7 -56 8 -66 32 -30 66 24 23 29 23
229 23 149 0 207 3 212 12 4 7 38 14 77 16 39 2 -9 4 -105 4 -96 -1 -223 0
-281 1 l-106 2 5 31 4 30 402 -6 c220 -3 615 -10 876 -15 1062 -21 1340 -23
1340 -12 0 9 -55 12 -192 13 -106 1 -254 5 -328 8 l-135 8 195 1 c107 1 202 7
210 12 11 7 5 10 -25 10 -117 2 -447 18 -451 22 -2 3 -7 52 -10 109 -3 57 -7
105 -9 108 -3 2 -6 -31 -7 -75 l-2 -79 -6 75 c-6 70 -7 72 -10 25 l-3 -50 -7
55 c-5 43 -7 31 -7 -55 0 -60 2 -98 4 -82 5 33 23 26 23 -9 0 -17 -5 -24 -20
-24 -19 0 -20 7 -20 105 0 122 -17 143 -23 28 l-3 -78 -2 84 c-2 71 -4 82 -18
77 -9 -3 -18 -6 -20 -6 -2 0 -4 -8 -5 -17 0 -15 -2 -15 -9 2 -6 13 -9 -18 -9
-87 l-1 -108 -51 0 c-43 0 -50 2 -45 18 5 17 79 537 92 645 3 32 13 64 20 72
10 9 10 15 3 17 -9 3 -6 55 10 188 12 102 29 248 38 325 11 101 20 143 31 153
10 7 11 12 4 12 -7 0 -12 8 -12 18 0 16 10 17 142 10 85 -5 146 -4 151 1 13
13 18 63 6 55 -5 -3 -6 -10 -3 -16 4 -7 2 -8 -4 -4 -9 5 -9 13 -2 26 13 24 13
43 0 35 -6 -4 -8 -10 -5 -15 3 -5 1 -11 -5 -15 -5 -3 -10 2 -10 11 0 10 -3 14
-7 11 -3 -4 -11 -3 -17 3 -13 10 -76 -33 -76 -51 0 -6 7 -3 16 5 12 12 20 14
36 5 11 -6 23 -8 26 -4 3 3 -4 8 -16 12 -18 4 -20 8 -11 19 10 12 15 12 31 -3
19 -17 21 -52 4 -64 -5 -4 -23 -5 -40 -2 -17 3 -71 6 -121 6 l-90 2 4 40 c1
22 8 43 14 47 8 5 8 8 1 8 -7 0 -7 29 2 98 26 193 16 263 -49 331 -63 66 -99
74 -319 79 l-198 4 -19 66 c-11 37 -27 96 -36 132 -9 36 -18 72 -21 81 -4 15
14 17 158 19 90 2 171 3 181 4 9 0 17 6 17 13 0 6 17 14 38 16 20 2 -63 4
-186 3 l-222 -1 -10 35 c-14 48 -13 52 9 40 11 -5 30 -10 43 -9 22 0 22 1 3 9
-17 7 -14 9 13 9 24 1 31 -3 26 -11 -6 -10 -4 -10 7 -1 7 7 29 13 48 13 27 0
32 -3 21 -10 -10 -7 24 -9 105 -9 66 1 111 4 100 8 -11 3 18 9 65 12 48 3 -31
6 -185 7 l-270 2 -48 168 c-54 192 -105 302 -178 385 -55 62 -142 126 -215
158 -41 19 -44 22 -46 62 l-1 42 -4 -37 c-2 -21 -6 -38 -7 -38 -2 0 -36 15
-75 33 l-73 34 124 11 c201 19 310 55 438 142 149 102 220 237 220 415 0 253
-153 429 -409 470 -97 16 -144 32 -135 47 4 5 7 23 8 39 1 17 9 35 17 40 8 5
10 9 5 9 -5 0 -3 7 4 15 7 8 9 15 4 15 -5 0 2 9 16 20 l25 19 -37 -5 c-35 -4
-38 -2 -38 22 0 16 -5 24 -12 21 -9 -3 -13 -32 -12 -100 0 -54 -2 -97 -5 -97
-18 1 -85 59 -83 71 2 8 5 39 7 69 l4 55 -11 -60 c-6 -33 -12 -62 -14 -64 -10
-11 -31 22 -27 42 3 13 0 39 -5 58 l-10 34 -2 -35 c-1 -19 -2 -39 -1 -44 4
-20 -32 20 -51 57 l-20 40 25 76 c43 128 59 227 59 356 2 455 -228 787 -637
924 -176 59 -411 77 -590 45z m-72 -120 c-70 -37 -139 -76 -152 -88 -19 -16
-17 -11 8 21 65 85 145 131 229 132 43 1 40 -1 -85 -65z m-78 18 c-6 -5 -46
-36 -90 -69 -44 -33 -86 -68 -94 -77 -30 -36 -29 -13 1 42 17 31 33 58 34 60
1 2 28 14 61 28 57 23 106 32 88 16z m-194 -79 c-11 -16 -38 -48 -61 -73 -39
-42 -41 -43 -37 -18 l4 27 -46 -37 c-25 -20 -61 -48 -80 -61 l-34 -24 7 29 c9
39 60 81 167 137 50 26 93 47 95 47 3 0 -4 -12 -15 -27z m-270 -182 c-13 -24
-26 -38 -34 -35 -12 4 -126 -105 -172 -167 -21 -27 -73 -65 -80 -57 -9 9 75
126 126 175 56 53 169 136 176 129 3 -2 -5 -22 -16 -45z m424 17 c-94 -23
-116 -38 -59 -38 21 0 46 -5 54 -10 11 -7 6 -10 -20 -10 -22 0 -68 -17 -121
-44 -61 -32 -104 -47 -148 -52 -33 -3 -61 -4 -61 -1 0 9 142 94 212 126 78 36
126 49 183 49 33 0 26 -3 -40 -20z m-289 -189 c19 -11 34 -23 34 -25 0 -2 -41
-4 -92 -4 -94 0 -100 5 -43 34 40 21 61 20 101 -5z m-54 -76 c62 -65 108 -153
79 -153 -4 0 -25 27 -45 60 -77 124 -143 132 -165 19 l-9 -44 -1 53 c-1 44 3
57 24 77 36 37 74 33 117 -12z m-242 -52 c0 -4 -8 -7 -17 -8 -39 -3 -135 -46
-181 -81 -58 -44 -102 -93 -131 -147 -24 -44 -20 -21 11 62 33 89 130 169 223
183 44 6 95 1 95 -9z m31 -18 c13 -16 12 -17 -3 -4 -10 7 -18 15 -18 17 0 8 8
3 21 -13z m86 -75 c-3 -8 -6 -5 -6 6 -1 11 2 17 5 13 3 -3 4 -12 1 -19z m-124
-5 c-7 -2 -19 -2 -25 0 -7 3 -2 5 12 5 14 0 19 -2 13 -5z m-46 -9 c-3 -3 -12
-4 -19 -1 -8 3 -5 6 6 6 11 1 17 -2 13 -5z m-69 -31 c-76 -64 -123 -141 -137
-224 -5 -30 -9 -42 -10 -28 0 15 -4 42 -8 60 l-8 34 -6 -45 c-5 -36 -6 -33 -4
19 4 85 37 134 124 178 77 40 93 42 49 6z m363 -33 c5 0 9 -7 9 -15 0 -22 15
-18 26 5 8 19 18 11 93 -75 46 -52 95 -102 108 -110 13 -9 21 -19 19 -24 -3
-4 0 -8 7 -8 7 0 37 -17 67 -38 117 -79 226 -119 444 -161 l88 -17 19 -44 c10
-23 23 -43 29 -43 6 0 9 -8 6 -18 -4 -12 5 -31 28 -55 30 -33 39 -37 83 -37
64 0 90 26 103 103 17 106 60 157 139 165 47 4 53 2 80 -27 35 -38 46 -81 38
-159 -5 -64 -21 -103 -86 -214 l-45 -77 -29 25 c-16 13 -35 24 -44 24 -22 0
-73 -55 -73 -79 0 -25 -8 -26 -38 -5 -26 18 -25 19 -61 -103 -66 -221 -219
-387 -476 -516 -160 -80 -262 -104 -318 -76 -43 22 -77 63 -93 111 -13 40 -41
75 -138 176 -136 143 -160 181 -159 262 1 128 16 260 27 251 31 -26 62 -29
115 -10 l54 18 -6 -57 c-2 -32 -19 -94 -36 -137 -36 -90 -35 -117 9 -135 16
-7 30 -16 30 -21 0 -5 15 -6 33 -4 26 5 29 4 12 -5 -16 -8 -11 -9 20 -4 73 11
145 64 145 107 0 19 -4 17 -35 -13 -31 -30 -43 -35 -98 -38 -44 -2 -68 1 -82
11 -22 17 -20 29 24 147 63 171 -34 376 -192 405 -45 9 -67 -6 -67 -44 l-1
-26 -19 24 c-11 13 -20 36 -20 51 0 36 28 43 104 29 31 -5 61 -7 66 -4 17 10
11 43 -12 70 -23 25 -24 26 -71 11 -26 -8 -59 -22 -74 -31 -14 -10 -29 -13
-34 -8 -29 29 -38 248 -14 331 25 83 49 103 138 117 52 8 79 9 86 2 19 -19 43
-16 49 6 5 18 7 19 10 5 2 -10 8 -18 13 -18z m-355 -35 c-9 -14 -24 -37 -33
-52 -13 -19 -19 -54 -21 -126 -5 -104 -16 -112 -28 -19 -8 69 9 131 53 182 39
45 54 53 29 15z m218 -613 c-3 -16 1 -45 9 -65 18 -42 46 -53 110 -43 30 4 38
3 27 -4 -28 -18 -105 -12 -140 13 -38 25 -57 75 -40 107 17 31 41 26 34 -8z
m136 -51 c15 -29 12 -40 -10 -34 -11 3 -17 9 -14 15 3 5 0 15 -6 23 -10 12 -9
15 3 15 9 0 21 -9 27 -19z m1069 -310 c-40 -84 -61 -198 -57 -305 6 -135 31
-200 109 -279 l58 -60 -88 -241 c-167 -454 -233 -588 -379 -781 -26 -33 -59
-82 -75 -110 -16 -27 -26 -42 -23 -32 3 9 -2 57 -11 105 -13 64 -17 137 -16
272 1 186 9 247 47 345 l15 40 1 -58 c0 -70 18 -108 67 -142 69 -46 133 -24
133 47 0 32 -16 37 -25 8 -3 -11 -16 -25 -27 -31 -16 -9 -26 -7 -46 8 -55 41
-63 62 -60 153 3 74 5 82 15 60 43 -91 -53 236 -113 385 -13 33 -20 61 -15 63
4 1 46 26 92 54 52 32 117 85 171 139 95 96 140 174 193 337 21 65 30 81 40
72 10 -9 9 -18 -6 -49z m-1322 -158 c-43 -60 -85 -141 -96 -190 -9 -37 -9 -37
-10 -8 -2 51 22 125 75 230 l49 100 9 -42 c7 -39 5 -46 -27 -90z m73 -18 c0
-8 -16 -40 -35 -72 -19 -32 -35 -64 -35 -70 0 -7 -7 -13 -16 -13 -12 0 -14 7
-9 33 19 84 95 183 95 122z m784 -653 c14 -65 14 -75 1 -88 -8 -9 -19 -13 -24
-10 -10 6 -55 -132 -78 -239 -12 -57 -14 -116 -9 -315 4 -135 11 -273 17 -307
10 -65 63 -183 72 -161 3 7 7 -3 8 -22 2 -19 4 -51 6 -70 16 -159 15 -186 -11
-292 -30 -121 -34 -256 -12 -350 13 -57 13 -58 -9 -58 -12 0 -36 3 -53 6 -27
5 -32 12 -42 53 -18 77 -27 202 -19 270 4 35 26 122 50 193 l42 129 13 -37
c14 -40 1 -102 -15 -75 -12 19 -31 4 -31 -25 0 -20 5 -24 29 -24 37 0 52 19
58 74 12 102 -69 281 -215 475 -52 69 -96 130 -98 136 -3 6 14 35 37 65 47 64
79 122 79 146 0 15 -7 16 -57 9 -32 -4 -67 -8 -78 -9 -11 -2 -36 -12 -55 -24
-19 -12 -36 -19 -38 -17 -6 6 49 104 200 357 130 216 194 307 208 291 4 -4 15
-41 24 -81z m636 -44 c19 -11 68 -45 109 -76 l73 -57 -5 -65 c-8 -98 -28 -309
-33 -357 l-5 -43 -60 41 c-132 89 -236 127 -283 102 -39 -20 -46 -49 -39 -165
l5 -103 -146 -83 c-80 -46 -148 -87 -151 -93 -4 -5 -11 -9 -16 -9 -15 0 14 47
105 170 124 167 219 362 350 723 20 53 27 54 96 15z m-893 -130 c-29 -41 -182
-312 -201 -354 -20 -47 -18 -90 4 -88 8 1 52 9 98 19 46 9 86 14 89 11 3 -3
-17 -35 -46 -72 -28 -37 -51 -70 -51 -73 0 -4 23 -38 51 -76 96 -130 229 -338
239 -373 8 -31 3 -53 -36 -166 -25 -72 -52 -153 -60 -181 -24 -86 -15 -225 22
-352 6 -20 4 -21 -33 -12 -128 29 -279 103 -315 154 -5 6 -8 6 -8 -2 0 -19 49
-125 67 -145 9 -10 13 -18 8 -18 -4 0 -1 -8 6 -17 7 -10 -4 -2 -24 17 -81 75
-134 239 -124 384 4 59 16 112 46 196 98 280 110 319 116 379 9 83 -4 73 -35
-24 -14 -45 -27 -71 -31 -63 -10 19 -30 130 -40 223 -5 59 -7 29 -5 -115 3
-210 -6 -225 -23 -40 -18 181 -20 185 -16 30 l4 -145 -26 50 c-15 28 -39 88
-54 135 -18 57 -28 75 -28 56 -1 -34 18 -112 65 -262 39 -128 40 -133 16 -196
l-18 -47 -94 62 c-93 60 -95 63 -92 97 6 64 60 342 96 497 57 245 89 319 171
391 45 40 153 101 222 127 53 19 58 18 40 -7z m1258 -103 c75 -53 140 -124
177 -191 59 -109 170 -482 183 -615 6 -52 2 -79 -18 -144 -14 -44 -28 -95 -32
-112 -6 -30 -15 -38 -37 -34 -5 0 -8 -3 -8 -9 0 -5 -45 -32 -99 -60 l-99 -49
-11 47 c-6 26 -20 114 -32 196 -21 145 -21 200 -2 331 4 27 2 37 -5 30 -17
-17 -41 -111 -48 -193 l-7 -77 -19 55 c-26 74 -28 247 -4 348 10 42 44 124 78
190 47 92 54 112 34 93 -38 -35 -123 -213 -146 -305 -11 -46 -20 -114 -20
-160 l-1 -81 -25 48 c-14 27 -28 47 -31 44 -7 -8 54 -191 83 -249 34 -67 13
-68 -38 -3 -41 53 -63 70 -52 41 3 -8 -4 -58 -15 -112 -11 -55 -23 -117 -26
-138 l-6 -39 -187 8 c-103 5 -209 9 -237 9 l-50 1 -23 -70 c-13 -38 -26 -102
-29 -141 l-6 -72 52 -11 c84 -18 132 -13 297 29 87 22 159 39 161 37 1 -2 -4
-27 -12 -55 -34 -115 -160 -249 -275 -294 -105 -40 -296 -17 -367 45 -67 59
-103 152 -103 266 0 78 21 193 40 216 5 6 23 98 40 205 25 155 35 199 52 217
25 26 205 137 303 186 l70 35 11 59 c7 33 21 81 32 107 l21 46 125 -65 c137
-71 166 -78 166 -42 1 107 24 288 46 375 15 56 29 102 32 102 2 0 33 -20 67
-45z m-3004 -295 c34 -19 48 -65 84 -272 39 -227 75 -427 206 -1148 96 -533
116 -638 209 -1119 56 -292 59 -315 45 -337 -19 -30 -16 -31 -249 55 l-179 66
-23 90 c-12 50 -43 162 -69 250 -58 201 -184 641 -217 760 l-25 90 -167 14
c-128 11 -169 12 -178 3 -8 -8 -15 -68 -19 -155 -28 -555 -49 -807 -69 -807
-5 0 -13 24 -19 53 -5 28 -35 183 -66 342 -78 406 -130 662 -175 860 -21 94
-53 238 -70 320 -18 83 -59 269 -92 415 -83 370 -84 379 -67 415 8 16 25 32
40 36 14 3 115 12 225 18 163 10 397 28 709 54 88 8 147 6 166 -3z m3962 -287
c-7 -2 -19 -2 -25 0 -7 3 -2 5 12 5 14 0 19 -2 13 -5z m-2740 -428 c25 -19 73
-51 106 -70 34 -20 61 -41 61 -48 0 -7 -4 -38 -10 -70 -5 -31 -10 -81 -11
-111 l-2 -53 -86 45 c-110 58 -181 109 -181 130 0 23 63 211 71 212 3 0 27
-16 52 -35z m2296 -183 c17 -53 30 -107 29 -119 -2 -23 -23 -37 -39 -27 -5 3
-9 1 -9 -5 0 -10 -38 -27 -52 -23 -5 1 -8 -3 -8 -9 0 -5 -5 -7 -12 -3 -7 5
-25 7 -41 6 -19 -2 -26 1 -22 9 6 8 2 8 -14 0 -11 -7 -21 -14 -21 -17 0 -3 5
-2 10 1 6 3 10 4 10 1 0 -3 -10 -10 -21 -17 -17 -9 -20 -8 -14 3 4 7 -3 2 -15
-12 -12 -14 -19 -19 -15 -12 6 11 3 12 -14 3 -23 -13 -29 -23 -7 -15 7 3 16
-2 20 -11 3 -9 2 -14 -3 -10 -12 7 -42 -5 -36 -15 7 -11 -24 -22 -37 -13 -6 3
-8 2 -5 -4 10 -16 -42 -36 -59 -22 -14 12 -47 108 -59 173 -4 20 -11 36 -16
36 -5 0 -9 -4 -9 -8 0 -5 -7 -9 -15 -9 -8 0 -15 1 -15 2 0 9 113 73 259 147
130 67 176 86 186 78 7 -6 27 -55 44 -108z m611 98 c-6 -11 -46 -278 -90 -592
-121 -881 -140 -1011 -145 -1016 -2 -3 -7 1 -9 9 -10 29 -67 490 -111 884 -24
226 -47 424 -49 441 -4 27 0 32 29 43 19 6 57 32 84 57 57 51 61 68 37 147
l-14 47 139 0 c137 0 139 0 129 -20z m-1457 -80 l117 0 0 -64 c0 -53 -3 -66
-17 -70 -10 -3 -96 -26 -192 -51 -154 -42 -182 -46 -238 -40 l-63 7 0 41 c0
46 20 130 40 166 12 24 14 24 124 18 61 -4 164 -7 229 -7z m354 -192 c-3 -7
-5 -2 -5 12 0 14 2 19 5 13 2 -7 2 -19 0 -25z m-1691 -42 c38 -16 43 -22 73
-101 37 -98 96 -182 175 -250 45 -40 56 -55 56 -79 0 -46 -37 -338 -56 -445
l-17 -93 -51 7 c-94 14 -98 13 -123 -30 -12 -22 -24 -43 -25 -47 -2 -5 -27
-14 -56 -22 -29 -7 -63 -23 -76 -35 -29 -27 -35 -27 -142 10 -88 30 -91 30
-226 23 -76 -3 -138 -4 -138 -1 0 3 25 14 55 23 30 10 55 21 55 25 0 10 -95
22 -140 17 -29 -2 -35 -7 -34 -25 0 -18 -5 -23 -23 -23 -39 0 -27 35 37 106
58 63 70 92 43 101 -6 2 -14 -5 -18 -16 -3 -11 -30 -57 -60 -101 -51 -76 -55
-80 -63 -59 -24 65 -23 76 13 119 19 23 35 48 35 56 0 26 -28 14 -51 -22 -25
-42 -33 -35 -44 40 l-7 48 144 -6 c79 -4 238 -11 353 -16 162 -7 226 -14 279
-29 38 -11 71 -19 73 -17 7 7 -53 45 -101 66 l-47 20 6 152 c11 277 26 552 32
591 3 22 10 36 17 34 6 -3 29 -12 52 -21z m1701 -8 c-3 -7 -5 -2 -5 12 0 14 2
19 5 13 2 -7 2 -19 0 -25z m373 22 c-8 -5 -19 -10 -25 -10 -5 0 -3 5 5 10 8 5
20 10 25 10 6 0 3 -5 -5 -10z m184 -22 c9 -42 26 -220 41 -433 8 -115 19 -273
25 -350 17 -239 14 -286 -25 -409 -19 -59 -44 -122 -54 -140 -48 -76 -168
-129 -374 -165 -242 -42 -734 -69 -962 -53 -165 12 -232 39 -338 138 -91 85
-137 105 -247 111 l-85 5 -89 -71 c-86 -69 -116 -84 -116 -59 0 6 52 64 116
129 113 114 117 117 147 108 56 -16 121 -11 145 11 30 28 28 31 -9 13 -34 -17
-125 -12 -188 10 -32 12 -34 11 -73 -36 -42 -50 -61 -55 -112 -34 l-29 13 29
19 c16 10 49 38 75 62 l46 43 89 -3 c76 -2 95 1 132 21 l44 22 111 -78 c62
-44 150 -105 197 -137 l85 -58 70 6 c160 14 579 89 855 153 221 52 296 62 329
44 13 -6 25 -9 28 -6 10 10 -20 37 -67 61 l-47 24 -17 108 c-10 59 -31 176
-46 258 -16 83 -40 220 -54 305 -15 85 -29 167 -32 183 -5 25 -2 29 48 52 29
13 116 53 193 89 77 36 143 65 147 65 4 1 10 -9 12 -21z m-3069 -47 c3 -5 1
-12 -5 -16 -5 -3 -10 1 -10 9 0 18 6 21 15 7z m1446 -521 c19 -15 102 -69 184
-119 83 -50 148 -91 145 -91 -3 0 -30 7 -60 15 -30 8 -75 15 -100 14 l-45 0
60 -19 c33 -11 92 -27 130 -36 107 -25 301 -91 275 -94 -3 0 -23 -7 -45 -15
l-40 -14 36 -1 c19 0 61 5 93 11 72 13 96 -2 34 -20 -24 -7 -59 -22 -78 -32
l-35 -18 35 4 c64 9 -113 -45 -200 -60 -93 -17 -123 -15 -252 21 -116 32 -138
41 -138 57 0 35 -179 440 -219 496 -12 16 -21 31 -21 34 0 9 204 -103 241
-133z m-2341 81 c35 -7 35 -7 42 -71 8 -79 25 -465 34 -772 6 -200 5 -228 -9
-228 -17 0 -21 80 -33 595 -4 149 -9 311 -13 360 l-6 90 -85 12 c-47 6 -86 12
-87 12 -2 1 -3 6 -3 11 0 11 82 6 160 -9z m2087 -113 c-3 -8 -6 -5 -6 6 -1 11
2 17 5 13 3 -3 4 -12 1 -19z m97 -172 l26 -68 -32 -30 c-25 -23 -38 -28 -64
-25 -39 6 -58 17 -47 28 10 10 59 21 93 21 20 0 26 6 28 25 2 20 -1 22 -17 13
-27 -14 -38 -13 -23 2 10 10 8 16 -10 29 l-22 17 30 -4 c27 -3 27 -3 4 5 -14
4 -32 5 -40 0 -12 -6 -15 2 -15 43 0 43 2 48 18 44 16 -4 18 0 13 22 -7 35 23
-27 58 -122z m-107 82 c-3 -8 -6 -5 -6 6 -1 11 2 17 5 13 3 -3 4 -12 1 -19z
m-2097 -54 c5 -21 10 -212 10 -423 0 -352 -1 -383 -16 -377 -10 4 -50 9 -91
13 -74 6 -75 6 -69 32 38 162 89 501 105 688 5 61 12 117 16 123 11 18 35 -11
45 -56z m2020 -278 c80 -12 83 -14 56 -25 -21 -8 -51 -9 -102 -3 -87 10 -107
3 -152 -49 -19 -22 -52 -47 -73 -56 -24 -9 -39 -22 -39 -32 0 -25 -11 -33 -26
-20 -22 18 -46 1 -119 -82 -74 -84 -134 -137 -122 -107 14 38 149 208 174 222
16 8 37 24 48 36 11 12 45 35 75 50 31 16 64 42 75 60 22 36 24 36 205 6z
m1119 5 c7 -5 11 -13 8 -17 -3 -5 30 -25 74 -44 46 -20 75 -38 70 -43 -14 -14
-155 -2 -261 22 -52 12 -147 24 -210 28 l-115 6 155 23 c246 36 260 37 279 25z
m-848 -48 c13 -16 12 -17 -3 -4 -10 7 -18 15 -18 17 0 8 8 3 21 -13z m172 -11
c43 -16 75 -31 71 -34 -3 -4 4 -4 17 -1 14 4 20 2 16 -4 -4 -6 -1 -10 6 -9 6
0 12 -3 12 -9 0 -13 -26 -13 -44 0 -12 8 -12 6 -2 -12 7 -15 17 -20 28 -16 11
4 14 3 9 -5 -4 -7 -2 -12 5 -12 7 0 10 -2 7 -5 -3 -3 -24 2 -48 10 -23 8 -62
17 -86 19 -61 6 -87 23 -80 49 3 12 6 30 6 40 0 9 1 17 3 17 1 0 37 -13 80
-28z m-1374 -38 c70 -13 395 -114 407 -127 2 -2 -2 -11 -9 -20 -11 -15 -23
-13 -137 23 -160 49 -162 50 -156 65 3 9 -3 11 -22 6 -16 -4 -47 0 -80 11 -30
10 -63 18 -74 18 -10 0 -18 2 -18 4 0 2 -3 11 -6 20 -8 20 -10 20 95 0z m368
-25 c46 -18 83 -35 83 -39 0 -4 -6 -12 -13 -18 -9 -8 -47 1 -140 31 -69 23
-127 45 -127 50 0 20 118 5 197 -24z m1029 -44 c-3 -8 3 -16 12 -18 14 -4 15
-5 1 -6 -9 0 -23 7 -32 17 -15 17 -15 18 4 19 14 1 19 -3 15 -12z m-1237 -60
c92 -30 174 -55 184 -55 23 0 22 -13 -3 -35 -19 -17 -24 -16 -157 30 -76 27
-167 58 -203 71 -43 14 -66 27 -69 39 -3 16 2 17 40 11 23 -4 117 -31 208 -61z
m554 -4 c16 -6 9 -20 -57 -111 -41 -58 -84 -110 -95 -117 -19 -12 -19 -12 -4
25 8 20 35 76 59 125 45 88 54 95 97 78z m-587 -81 c92 -33 173 -60 180 -60
22 0 16 -15 -11 -30 -21 -12 -37 -9 -137 25 -196 67 -223 79 -226 103 -2 14 2
22 12 22 8 0 90 -27 182 -60z m423 -37 c-18 -32 -33 -59 -35 -61 -2 -3 -26 9
-53 26 -3 1 9 16 25 33 31 33 85 71 92 64 2 -2 -11 -30 -29 -62z m466 6 c24
-6 54 -22 67 -36 20 -22 20 -24 3 -15 -11 6 -46 20 -77 32 -81 31 -77 40 7 19z
m-937 -49 c56 -21 152 -55 214 -75 144 -45 152 -50 102 -64 -35 -10 -50 -7
-154 30 -63 22 -149 52 -190 66 -86 30 -100 38 -100 64 0 26 12 24 128 -21z
m419 -43 c1 -2 0 -13 -4 -25 -7 -26 -19 -27 -103 -3 -60 17 -63 20 -40 29 42
16 63 18 105 9 22 -4 41 -9 42 -10z m-292 -104 c217 -87 219 -88 170 -91 -32
-2 -80 6 -130 22 -76 23 -257 85 -263 91 -1 1 -7 16 -12 34 -6 22 -5 31 3 31
6 0 110 -39 232 -87z m549 13 c76 -24 134 -46 128 -50 -7 -4 -33 -9 -59 -12
-39 -5 -66 1 -143 30 -52 20 -101 36 -107 36 -23 0 -14 18 15 28 15 6 27 11
27 11 0 0 62 -19 139 -43z m2853 22 c-3 -8 -6 -5 -6 6 -1 11 2 17 5 13 3 -3 4
-12 1 -19z m-3025 -64 c46 -14 87 -29 91 -34 24 -22 -229 6 -273 30 -12 7 -10
11 10 19 41 16 84 12 172 -15z m-506 -35 c87 -26 95 -35 46 -43 -54 -8 -100 2
-117 28 -30 42 -23 44 71 15z m1567 -5 c40 -12 11 -21 -70 -23 -49 -1 -189 -8
-313 -16 -124 -8 -353 -19 -510 -25 -157 -6 -355 -15 -441 -20 -151 -9 -237
-3 -195 13 27 11 220 26 461 37 251 11 512 28 615 40 74 8 419 4 453 -6z
m2094 -16 c-3 -8 -6 -5 -6 6 -1 11 2 17 5 13 3 -3 4 -12 1 -19z m-1800 -24
c-3 -3 -12 -4 -19 -1 -8 3 -5 6 6 6 11 1 17 -2 13 -5z m-1880 -40 c-3 -3 -12
-4 -19 -1 -8 3 -5 6 6 6 11 1 17 -2 13 -5z"/>
<path d="M3580 5774 c-9 -23 -3 -61 13 -81 10 -13 19 -13 116 8 31 7 92 12
136 12 68 0 93 -5 170 -35 50 -20 108 -39 130 -42 l40 -7 -33 21 c-19 11 -86
46 -150 77 -124 60 -112 58 -325 66 -84 3 -89 2 -97 -19z"/>
<path d="M4597 5729 c-45 -26 -57 -129 -16 -129 10 0 25 -10 33 -22 11 -16 19
-19 27 -11 18 18 6 66 -19 79 -21 11 -22 13 -7 28 19 19 21 19 46 5 65 -34 32
-161 -53 -205 -33 -17 -36 -6 -7 30 22 28 20 56 -6 56 -14 0 -75 -106 -75
-131 0 -7 10 -9 28 -5 15 4 45 11 67 16 48 10 80 46 100 114 23 75 19 119 -11
155 -27 33 -71 41 -107 20z"/>
<path d="M3697 5635 c-9 -9 -17 -27 -17 -41 0 -19 5 -24 27 -24 21 0 24 -3 15
-12 -15 -15 -16 -104 -2 -113 6 -3 12 1 15 9 18 56 18 56 29 5 3 -15 14 -30
23 -34 31 -11 103 -23 98 -15 -3 4 8 10 23 13 26 6 129 77 144 101 4 6 8 17 8
24 0 10 -4 10 -20 0 -17 -11 -23 -9 -47 14 -71 68 -256 113 -296 73z m234
-112 c35 -21 36 -33 4 -63 l-25 -23 0 22 c0 12 -7 35 -15 51 -18 35 -7 38 36
13z m-66 -33 c3 -5 3 -15 -1 -21 -6 -11 -23 6 -24 24 0 10 18 9 25 -3z"/>
<path d="M3916 5505 c4 -8 11 -15 16 -15 6 0 5 6 -2 15 -7 8 -14 15 -16 15 -2
0 -1 -7 2 -15z"/>
<path d="M3755 5385 l-30 -14 30 5 c17 3 50 9 75 13 l45 9 -45 0 c-25 1 -58
-5 -75 -13z"/>
<path d="M3758 5142 c38 -34 92 -52 153 -52 62 0 38 15 -56 35 -44 9 -91 23
-105 31 -18 11 -16 7 8 -14z"/>
<path d="M3849 5035 c-55 -30 -206 -66 -294 -72 -83 -5 -93 -3 -125 19 -19 13
-43 27 -53 31 -17 6 -17 5 1 -21 11 -15 29 -36 41 -46 12 -11 35 -43 52 -73
35 -60 71 -93 105 -93 39 0 122 36 175 77 44 33 159 168 159 186 0 12 -33 7
-61 -8z m-55 -74 c9 -13 -41 -58 -91 -82 -49 -24 -126 -35 -166 -25 -21 5 -47
42 -47 66 0 6 28 10 63 11 34 0 94 9 132 19 83 21 102 23 109 11z m-60 -91
c-16 -16 -124 -50 -158 -50 -17 0 -38 5 -46 11 -11 7 -3 8 30 4 33 -4 63 1
110 19 36 13 67 24 70 25 2 0 0 -3 -6 -9z"/>
<path d="M3844 2706 c-3 -8 -4 -25 -2 -38 4 -28 39 -36 58 -14 10 13 9 20 -4
41 -18 28 -44 33 -52 11z"/>
<path d="M1739 3676 c-4 -4 -131 -11 -594 -36 -203 -11 -246 -18 -253 -41 -4
-11 -2 -12 9 -2 9 7 115 15 304 22 160 7 364 16 455 21 91 5 177 10 191 10 14
0 34 7 45 15 17 13 11 14 -67 15 -47 0 -88 -2 -90 -4z"/>
<path d="M1605 2837 c-61 -34 -74 -105 -21 -115 12 -3 16 5 16 35 1 35 15 68
33 71 4 1 7 5 6 8 0 4 5 11 13 15 27 18 -9 7 -47 -14z"/>
<path d="M1487 2776 c-35 -35 -33 -114 3 -174 18 -29 25 -33 48 -27 43 10 46
21 16 61 -23 29 -29 48 -29 85 0 57 -15 78 -38 55z"/>
<path d="M1526 1443 c-13 -111 -17 -230 -8 -252 6 -17 11 22 15 134 7 159 4
208 -7 118z"/>
<path d="M3170 1240 c0 -5 7 -10 15 -10 8 0 15 5 15 10 0 6 -7 10 -15 10 -8 0
-15 -4 -15 -10z"/>
<path d="M2952 6799 c-127 -16 -316 -78 -332 -109 -9 -17 -5 -17 42 5 62 28
269 90 348 103 68 12 28 12 -58 1z"/>
<path d="M3143 6803 c9 -2 25 -2 35 0 9 3 1 5 -18 5 -19 0 -27 -2 -17 -5z"/>
<path d="M2108 6473 c6 -2 18 -2 25 0 6 3 1 5 -13 5 -14 0 -19 -2 -12 -5z"/>
<path d="M2203 6473 c15 -2 39 -2 55 0 15 2 2 4 -28 4 -30 0 -43 -2 -27 -4z"/>
<path d="M1969 6443 c-5 -35 -3 -103 3 -103 5 0 8 25 8 55 0 30 -2 55 -5 55
-3 0 -5 -3 -6 -7z"/>
<path d="M1960 6320 c0 -5 5 -10 10 -10 6 0 10 5 10 10 0 6 -4 10 -10 10 -5 0
-10 -4 -10 -10z"/>
<path d="M1969 6288 c0 -7 -2 -23 -5 -35 -2 -12 1 -25 6 -28 6 -4 10 10 10 34
0 23 -2 41 -5 41 -3 0 -5 -6 -6 -12z"/>
<path d="M1966 6193 c-6 -14 -5 -15 5 -6 7 7 10 15 7 18 -3 3 -9 -2 -12 -12z"/>
<path d="M2008 6173 c12 -2 30 -2 40 0 9 3 -1 5 -23 4 -22 0 -30 -2 -17 -4z"/>
<path d="M1968 6143 c5 -21 7 -23 10 -9 2 10 0 22 -6 28 -6 6 -7 0 -4 -19z"/>
<path d="M2233 6153 c9 -2 23 -2 30 0 6 3 -1 5 -18 5 -16 0 -22 -2 -12 -5z"/>
<path d="M2008 6113 c12 -2 30 -2 40 0 9 3 -1 5 -23 4 -22 0 -30 -2 -17 -4z"/>
<path d="M2228 6103 c7 -3 16 -2 19 1 4 3 -2 6 -13 5 -11 0 -14 -3 -6 -6z"/>
<path d="M1969 6098 c-6 -21 -5 -39 2 -44 5 -3 8 6 7 20 -2 22 -6 33 -9 24z"/>
<path d="M2238 6053 c7 -3 16 -2 19 1 4 3 -2 6 -13 5 -11 0 -14 -3 -6 -6z"/>
<path d="M1960 6021 c0 -6 5 -13 10 -16 6 -3 10 1 10 9 0 9 -4 16 -10 16 -5 0
-10 -4 -10 -9z"/>
<path d="M2013 5993 c9 -2 23 -2 30 0 6 3 -1 5 -18 5 -16 0 -22 -2 -12 -5z"/>
<path d="M1962 5950 c0 -14 2 -19 5 -12 2 6 2 18 0 25 -3 6 -5 1 -5 -13z"/>
<path d="M2078 5923 c7 -3 16 -2 19 1 4 3 -2 6 -13 5 -11 0 -14 -3 -6 -6z"/>
<path d="M2163 5923 c9 -2 23 -2 30 0 6 3 -1 5 -18 5 -16 0 -22 -2 -12 -5z"/>
<path d="M2228 5923 c7 -3 16 -2 19 1 4 3 -2 6 -13 5 -11 0 -14 -3 -6 -6z"/>
<path d="M2238 5903 c7 -3 16 -2 19 1 4 3 -2 6 -13 5 -11 0 -14 -3 -6 -6z"/>
<path d="M2078 5893 c6 -2 18 -2 25 0 6 3 1 5 -13 5 -14 0 -19 -2 -12 -5z"/>
<path d="M6312 5853 c-13 -3 -19 -9 -16 -15 5 -8 1 -9 -10 -5 -11 5 -15 3 -10
-5 5 -8 2 -9 -9 -5 -9 3 -19 2 -22 -3 -3 -4 7 -7 22 -5 26 3 26 2 8 -12 -19
-15 -19 -15 5 -9 14 3 32 6 40 6 12 0 12 2 2 9 -9 5 7 7 39 5 35 -1 64 3 84
14 l30 16 -40 7 c-43 8 -86 9 -123 2z"/>
<path d="M2228 5823 c7 -3 16 -2 19 1 4 3 -2 6 -13 5 -11 0 -14 -3 -6 -6z"/>
<path d="M2178 5793 c12 -2 32 -2 45 0 12 2 2 4 -23 4 -25 0 -35 -2 -22 -4z"/>
<path d="M6215 5789 c-3 -4 2 -6 10 -5 21 3 28 13 10 13 -9 0 -18 -4 -20 -8z"/>
<path d="M6428 5782 c-8 -9 -15 -35 -17 -57 -4 -76 -44 -159 -108 -222 -28
-29 -76 -30 -103 -3 -11 11 -20 16 -20 10 0 -5 12 -17 26 -26 16 -11 21 -20
14 -24 -8 -5 -6 -9 5 -13 9 -4 13 -3 10 3 -10 16 11 12 25 -5 10 -12 10 -15 0
-15 -8 0 -11 -2 -8 -5 2 -3 28 2 56 10 64 19 117 78 150 164 13 33 28 61 33
61 6 0 8 4 5 8 -3 5 7 7 22 5 18 -3 37 4 57 22 l30 26 -72 -5 c-77 -5 -86 0
-77 48 5 31 -9 41 -28 18z"/>
<path d="M1925 5760 c10 -11 20 -20 23 -20 3 0 -3 9 -13 20 -10 11 -20 20 -23
20 -3 0 3 -9 13 -20z"/>
<path d="M2790 5776 c0 -2 7 -7 16 -10 8 -3 12 -2 9 4 -6 10 -25 14 -25 6z"/>
<path d="M6249 5763 c-13 -16 -12 -17 4 -4 9 7 17 15 17 17 0 8 -8 3 -21 -13z"/>
<path d="M6390 5749 c0 -5 5 -7 10 -4 6 3 10 8 10 11 0 2 -4 4 -10 4 -5 0 -10
-5 -10 -11z"/>
<path d="M2228 5743 c7 -3 16 -2 19 1 4 3 -2 6 -13 5 -11 0 -14 -3 -6 -6z"/>
<path d="M6364 5739 c-3 -6 -2 -15 4 -21 6 -6 12 -6 17 3 6 8 4 10 -5 4 -10
-6 -12 -4 -7 8 7 19 2 23 -9 6z"/>
<path d="M2213 5713 c9 -2 25 -2 35 0 9 3 1 5 -18 5 -19 0 -27 -2 -17 -5z"/>
<path d="M6363 5684 c-3 -8 -12 -13 -20 -10 -8 3 -11 1 -8 -4 10 -16 23 -12
35 10 6 11 8 20 5 20 -3 0 -8 -7 -12 -16z"/>
<path d="M6331 5627 c-13 -21 -12 -21 5 -5 10 10 16 20 13 22 -3 3 -11 -5 -18
-17z"/>
<path d="M2178 5623 c7 -3 16 -2 19 1 4 3 -2 6 -13 5 -11 0 -14 -3 -6 -6z"/>
<path d="M2228 5623 c7 -3 16 -2 19 1 4 3 -2 6 -13 5 -11 0 -14 -3 -6 -6z"/>
<path d="M6299 5583 c-13 -16 -12 -17 4 -4 9 7 17 15 17 17 0 8 -8 3 -21 -13z"/>
<path d="M1264 5548 l-19 -23 23 19 c12 11 22 21 22 23 0 8 -8 2 -26 -19z"/>
<path d="M2033 5553 c9 -2 23 -2 30 0 6 3 -1 5 -18 5 -16 0 -22 -2 -12 -5z"/>
<path d="M2108 5553 c6 -2 18 -2 25 0 6 3 1 5 -13 5 -14 0 -19 -2 -12 -5z"/>
<path d="M2193 5553 c15 -2 37 -2 50 0 12 2 0 4 -28 4 -27 0 -38 -2 -22 -4z"/>
<path d="M6150 5545 c0 -5 5 -17 10 -25 5 -8 10 -10 10 -5 0 6 -5 17 -10 25
-5 8 -10 11 -10 5z"/>
<path d="M1971 5524 c0 -11 3 -14 6 -6 3 7 2 16 -1 19 -3 4 -6 -2 -5 -13z"/>
<path d="M1212 5455 c0 -16 2 -22 5 -12 2 9 2 23 0 30 -3 6 -5 -1 -5 -18z"/>
<path d="M6091 5464 c0 -11 3 -14 6 -6 3 7 2 16 -1 19 -3 4 -6 -2 -5 -13z"/>
<path d="M2228 5443 c6 -2 18 -2 25 0 6 3 1 5 -13 5 -14 0 -19 -2 -12 -5z"/>
<path d="M2098 5413 c6 -2 18 -2 25 0 6 3 1 5 -13 5 -14 0 -19 -2 -12 -5z"/>
<path d="M2072 5370 c0 -14 2 -19 5 -12 2 6 2 18 0 25 -3 6 -5 1 -5 -13z"/>
<path d="M950 5370 c0 -5 5 -10 10 -10 6 0 10 5 10 10 0 6 -4 10 -10 10 -5 0
-10 -4 -10 -10z"/>
<path d="M1993 5343 c9 -2 23 -2 30 0 6 3 -1 5 -18 5 -16 0 -22 -2 -12 -5z"/>
<path d="M2128 5333 c23 -2 61 -2 85 0 23 2 4 4 -43 4 -47 0 -66 -2 -42 -4z"/>
<path d="M2113 5313 c15 -2 39 -2 55 0 15 2 2 4 -28 4 -30 0 -43 -2 -27 -4z"/>
<path d="M1998 5303 c12 -2 30 -2 40 0 9 3 -1 5 -23 4 -22 0 -30 -2 -17 -4z"/>
<path d="M2118 5253 c12 -2 30 -2 40 0 9 3 -1 5 -23 4 -22 0 -30 -2 -17 -4z"/>
<path d="M2188 5253 c7 -3 16 -2 19 1 4 3 -2 6 -13 5 -11 0 -14 -3 -6 -6z"/>
<path d="M1526 5204 c-10 -25 -7 -29 7 -9 10 12 16 14 21 7 4 -7 4 -16 1 -22
-3 -5 -1 -10 5 -10 6 0 8 -5 4 -11 -4 -7 1 -7 16 1 12 6 19 14 16 17 -3 3 5
14 17 24 22 18 22 18 -29 19 -38 0 -53 -4 -58 -16z m60 -14 c0 -11 -1 -20 -3
-20 -1 0 -7 9 -13 20 -8 15 -8 20 3 20 7 0 13 -9 13 -20z"/>
<path d="M6590 5201 c28 -17 290 -17 290 -1 0 6 -57 10 -152 10 -93 0 -147 -4
-138 -9z"/>
<path d="M856 5023 c-6 -14 -5 -15 5 -6 7 7 10 15 7 18 -3 3 -9 -2 -12 -12z"/>
<path d="M2989 4990 c-9 -10 -13 -23 -10 -29 5 -7 12 -2 20 15 14 32 11 36
-10 14z"/>
<path d="M6318 4973 c6 -2 18 -2 25 0 6 3 1 5 -13 5 -14 0 -19 -2 -12 -5z"/>
<path d="M6311 4944 c0 -11 3 -14 6 -6 3 7 2 16 -1 19 -3 4 -6 -2 -5 -13z"/>
<path d="M1795 4929 c-25 -14 -36 -16 -30 -7 6 8 2 5 -8 -5 -11 -13 -15 -27
-11 -41 12 -38 46 -47 80 -20 10 8 12 12 4 8 -8 -4 -12 -4 -8 1 4 4 51 10 105
12 120 4 171 12 154 22 -7 4 -11 14 -9 22 4 18 -126 35 -159 20 -13 -6 -23 -7
-23 -3 0 17 -57 11 -95 -9z"/>
<path d="M1686 4878 c-3 -13 -2 -26 2 -30 4 -4 8 6 9 23 3 35 -2 38 -11 7z"/>
<path d="M2328 4873 c28 -2 76 -2 105 0 28 2 5 3 -53 3 -58 0 -81 -1 -52 -3z"/>
<path d="M6488 4853 c7 -3 16 -2 19 1 4 3 -2 6 -13 5 -11 0 -14 -3 -6 -6z"/>
<path d="M6583 4843 c15 -2 39 -2 55 0 15 2 2 4 -28 4 -30 0 -43 -2 -27 -4z"/>
<path d="M1692 4790 c0 -14 2 -19 5 -12 2 6 2 18 0 25 -3 6 -5 1 -5 -13z"/>
<path d="M2542 4788 c-7 -13 -14 -89 -16 -171 -3 -81 -7 -151 -10 -155 -7 -12
10 -35 28 -38 14 -2 16 21 16 192 0 107 -1 194 -3 194 -2 0 -9 -10 -15 -22z"/>
<path d="M6478 4803 c6 -2 18 -2 25 0 6 3 1 5 -13 5 -14 0 -19 -2 -12 -5z"/>
<path d="M6898 4803 c6 -2 18 -2 25 0 6 3 1 5 -13 5 -14 0 -19 -2 -12 -5z"/>
<path d="M1880 4760 c0 -6 100 -10 280 -10 180 0 280 4 280 10 0 6 -100 10
-280 10 -180 0 -280 -4 -280 -10z"/>
<path d="M6784 4638 c-40 -43 -113 -147 -91 -129 9 7 17 10 17 6 0 -3 12 3 26
14 15 12 37 21 50 21 12 0 26 5 29 10 5 8 11 7 21 -1 11 -9 14 -40 13 -133
l-1 -121 -42 -40 c-22 -21 -40 -43 -39 -47 2 -4 -3 -5 -11 -2 -14 5 -106 -78
-106 -96 0 -5 38 20 85 56 49 38 82 70 78 77 -4 7 0 8 13 3 10 -4 15 -4 11 0
-4 4 1 16 10 27 13 13 18 34 17 71 -1 37 1 46 7 31 7 -15 8 -13 3 10 -3 17 -9
61 -13 98 -7 68 -25 97 -45 77 -6 -6 -17 -10 -25 -10 -10 0 -7 8 11 28 28 30
42 62 28 62 -6 0 -10 -7 -10 -15 0 -18 -16 -20 -26 -3 -5 7 -2 8 7 3 8 -5 11
-5 7 0 -4 4 -3 14 3 22 22 26 2 12 -27 -19z m26 -392 c0 -2 -8 -10 -17 -17
-16 -13 -17 -12 -4 4 13 16 21 21 21 13z"/>
<path d="M1882 4648 c4 -10 70 -14 276 -16 238 -2 272 0 272 13 0 13 -36 15
-276 15 -216 0 -275 -3 -272 -12z"/>
<path d="M6311 4624 c0 -11 3 -14 6 -6 3 7 2 16 -1 19 -3 4 -6 -2 -5 -13z"/>
<path d="M6322 4538 c-35 -35 4 -103 43 -74 16 12 15 12 -13 8 -28 -4 -32 -1
-32 19 0 13 5 31 10 39 8 13 12 13 32 1 21 -13 22 -13 9 2 -16 20 -32 22 -49
5z"/>
<path d="M6891 4534 c0 -11 3 -14 6 -6 3 7 2 16 -1 19 -3 4 -6 -2 -5 -13z"/>
<path d="M2065 4510 c109 -12 313 -11 320 0 4 7 -62 9 -192 8 -146 -1 -180 -3
-128 -8z"/>
<path d="M6119 4508 c-6 -21 -5 -37 2 -32 5 3 7 9 4 14 -3 5 3 11 12 13 17 4
17 5 1 6 -10 0 -18 0 -19 -1z"/>
<path d="M6742 4455 c0 -16 2 -22 5 -12 2 9 2 23 0 30 -3 6 -5 -1 -5 -18z"/>
<path d="M6101 4444 c0 -11 3 -14 6 -6 3 7 2 16 -1 19 -3 4 -6 -2 -5 -13z"/>
<path d="M6770 4366 c0 -68 -10 -102 -23 -76 -3 6 -4 5 -3 -2 2 -7 -1 -21 -6
-32 -10 -18 -9 -18 16 0 24 18 25 25 26 102 0 45 -2 82 -5 82 -3 0 -5 -33 -5
-74z"/>
<path d="M2308 4413 c7 -3 16 -2 19 1 4 3 -2 6 -13 5 -11 0 -14 -3 -6 -6z"/>
<path d="M2398 4413 c12 -2 32 -2 45 0 12 2 2 4 -23 4 -25 0 -35 -2 -22 -4z"/>
<path d="M6642 4288 c2 -125 5 -110 10 40 2 45 0 82 -4 82 -5 0 -7 -55 -6
-122z"/>
<path d="M2601 4384 c0 -11 3 -14 6 -6 3 7 2 16 -1 19 -3 4 -6 -2 -5 -13z"/>
<path d="M6159 4386 c6 -7 7 -17 3 -22 -4 -4 1 -2 11 5 19 15 16 24 -9 27 -11
2 -12 -1 -5 -10z"/>
<path d="M2548 4372 c-6 -23 -7 -23 -35 -7 -18 11 -22 12 -10 2 23 -19 5 -34
-48 -40 -40 -4 -40 -4 8 -5 27 -1 47 2 47 9 0 5 4 8 9 5 12 -8 44 30 39 46 -3
7 -7 2 -10 -10z"/>
<path d="M6133 4375 c0 -8 4 -12 9 -9 5 3 6 10 3 15 -9 13 -12 11 -12 -6z"/>
<path d="M6680 4355 c0 -14 4 -25 9 -25 4 0 6 11 3 25 -2 14 -6 25 -8 25 -2 0
-4 -11 -4 -25z"/>
<path d="M6741 4364 c0 -11 3 -14 6 -6 3 7 2 16 -1 19 -3 4 -6 -2 -5 -13z"/>
<path d="M2370 4360 c0 -5 5 -10 10 -10 6 0 10 5 10 10 0 6 -4 10 -10 10 -5 0
-10 -4 -10 -10z"/>
<path d="M2400 4355 c0 -8 2 -15 4 -15 2 0 6 7 10 15 3 8 1 15 -4 15 -6 0 -10
-7 -10 -15z"/>
<path d="M6824 4362 c-14 -9 -25 -52 -13 -52 5 0 9 8 9 18 0 10 5 23 12 30 13
13 9 16 -8 4z"/>
<path d="M6719 4339 c0 -2 -2 -20 -4 -39 l-4 -35 10 34 c6 18 8 36 5 39 -3 3
-6 3 -7 1z"/>
<path d="M6741 4324 c0 -11 3 -14 6 -6 3 7 2 16 -1 19 -3 4 -6 -2 -5 -13z"/>
<path d="M1953 4323 c15 -2 39 -2 55 0 15 2 2 4 -28 4 -30 0 -43 -2 -27 -4z"/>
<path d="M2142 4323 c48 -2 129 -2 180 0 51 1 12 3 -87 3 -99 0 -141 -2 -93
-3z"/>
<path d="M3108 4293 c45 -2 119 -2 165 0 45 1 8 3 -83 3 -91 0 -128 -2 -82 -3z"/>
<path d="M6691 4268 c-2 -39 -11 -59 -25 -51 -6 4 -4 -1 4 -11 13 -17 15 -16
23 14 4 18 6 42 4 54 -4 17 -5 16 -6 -6z"/>
<path d="M1950 4273 c-14 -3 -29 -8 -33 -13 -5 -4 4 -5 20 -2 27 5 28 4 11
-15 -27 -30 -21 -36 7 -8 24 25 27 25 196 25 95 0 170 2 168 4 -6 5 -341 14
-369 9z"/>
<path d="M2443 4263 c9 -2 23 -2 30 0 6 3 -1 5 -18 5 -16 0 -22 -2 -12 -5z"/>
<path d="M6858 4221 c3 -9 2 -13 -3 -9 -15 14 -156 -96 -176 -136 -7 -13 -1
-10 15 9 14 17 25 25 26 18 0 -7 -15 -27 -33 -45 -57 -56 -55 -65 16 -73 34
-3 76 -8 92 -10 l30 -5 -28 11 c-19 8 -26 16 -23 26 5 11 2 13 -10 9 -19 -7
-54 10 -54 27 0 12 117 126 123 120 2 -1 17 11 33 29 16 17 23 27 15 23 -10
-6 -13 -4 -9 7 4 8 1 15 -7 15 -8 0 -11 -7 -7 -16z m12 -16 c0 -1 -9 -10 -19
-19 -19 -17 -19 -17 -16 1 2 10 4 18 4 19 2 2 31 1 31 -1z m-59 -28 c-6 -8 -9
-16 -6 -19 3 -3 -5 -13 -17 -24 l-23 -19 19 23 c11 12 16 22 11 22 -4 0 -2 7
5 15 7 8 15 15 17 15 3 0 0 -6 -6 -13z m-44 -35 c-10 -10 -15 -21 -12 -24 3
-2 -7 -15 -22 -29 -25 -22 -26 -22 -9 -1 14 17 16 22 5 22 -8 0 -1 11 16 25
36 29 44 32 22 7z"/>
<path d="M6896 4228 c3 -5 35 -8 71 -8 37 0 64 2 62 4 -8 8 -137 11 -133 4z"/>
<path d="M1284 4178 l-29 -33 33 29 c30 28 37 36 29 36 -2 0 -16 -15 -33 -32z"/>
<path d="M2038 4203 c7 -3 16 -2 19 1 4 3 -2 6 -13 5 -11 0 -14 -3 -6 -6z"/>
<path d="M2113 4203 c15 -2 37 -2 50 0 12 2 0 4 -28 4 -27 0 -38 -2 -22 -4z"/>
<path d="M2270 4203 c0 -6 -10 -9 -22 -7 -21 4 -21 4 -3 -5 20 -9 45 3 32 16
-4 3 -7 2 -7 -4z"/>
<path d="M2303 4203 c9 -2 23 -2 30 0 6 3 -1 5 -18 5 -16 0 -22 -2 -12 -5z"/>
<path d="M2524 4203 c7 -7 87 -5 95 3 2 2 -20 4 -49 4 -29 0 -50 -3 -46 -7z"/>
<path d="M1924 4115 c0 -49 1 -71 3 -48 2 23 2 64 0 90 -2 26 -3 8 -3 -42z"/>
<path d="M1201 4136 c-8 -10 -9 -16 -1 -21 5 -3 10 -5 11 -3 4 18 7 38 4 38
-1 0 -8 -6 -14 -14z"/>
<path d="M3078 4133 c6 -2 18 -2 25 0 6 3 1 5 -13 5 -14 0 -19 -2 -12 -5z"/>
<path d="M3258 4133 c28 -2 76 -2 105 0 28 2 5 3 -53 3 -58 0 -81 -1 -52 -3z"/>
<path d="M2652 4095 c0 -16 2 -22 5 -12 2 9 2 23 0 30 -3 6 -5 -1 -5 -18z"/>
<path d="M1165 4079 c-3 -4 2 -6 10 -5 21 3 28 13 10 13 -9 0 -18 -4 -20 -8z"/>
<path d="M2659 4049 c-12 -65 -13 -95 -9 -274 l3 -160 7 215 c4 118 6 217 4
219 -2 2 -4 2 -5 0z"/>
<path d="M3083 4043 c54 -2 139 -2 190 0 51 1 7 3 -98 3 -104 0 -146 -2 -92
-3z"/>
<path d="M1616 3985 c-4 -16 -1 -34 9 -48 8 -12 15 -16 15 -9 0 6 7 12 15 12
9 0 18 7 21 15 4 8 10 12 15 9 22 -13 7 15 -16 30 -34 23 -52 20 -59 -9z m41
9 c-3 -3 -12 -4 -19 -1 -8 3 -5 6 6 6 11 1 17 -2 13 -5z"/>
<path d="M2614 3875 c0 -60 1 -84 3 -52 2 32 2 81 0 110 -2 29 -3 3 -3 -58z"/>
<path d="M3048 3943 c7 -3 16 -2 19 1 4 3 -2 6 -13 5 -11 0 -14 -3 -6 -6z"/>
<path d="M3133 3943 c15 -2 39 -2 55 0 15 2 2 4 -28 4 -30 0 -43 -2 -27 -4z"/>
<path d="M1991 3854 c0 -11 3 -14 6 -6 3 7 2 16 -1 19 -3 4 -6 -2 -5 -13z"/>
<path d="M5760 3811 c0 -5 -10 -12 -22 -15 -21 -4 21 -2 182 9 39 3 49 1 35
-5 -15 -7 -10 -8 19 -5 21 3 50 8 64 12 15 3 23 2 19 -4 -3 -5 0 -10 8 -10 8
0 12 4 9 8 -2 4 19 10 48 12 29 2 -40 4 -154 5 -123 1 -208 -2 -208 -7z"/>
<path d="M6175 3799 c-28 -4 -14 -6 45 -7 84 0 97 4 30 10 -19 2 -53 0 -75 -3z"/>
<path d="M825 3790 c-19 -8 -19 -9 3 -9 12 -1 22 4 22 9 0 6 -1 10 -2 9 -2 0
-12 -4 -23 -9z"/>
<path d="M3166 3789 c3 -5 24 -9 46 -9 51 0 47 5 -10 13 -24 3 -40 1 -36 -4z"/>
<path d="M6108 3793 c7 -3 16 -2 19 1 4 3 -2 6 -13 5 -11 0 -14 -3 -6 -6z"/>
<path d="M5700 3703 c0 -5 62 -7 137 -5 255 4 279 8 71 10 -115 1 -208 -1
-208 -5z"/>
<path d="M3108 3673 c7 -3 16 -2 19 1 4 3 -2 6 -13 5 -11 0 -14 -3 -6 -6z"/>
<path d="M5805 3620 c-18 -8 -17 -9 7 -9 15 -1 30 4 33 9 7 12 -12 12 -40 0z"/>
<path d="M5893 3615 c0 -13 26 -15 181 -13 115 1 153 4 106 7 l-75 5 85 6 c64
5 38 7 -106 8 -164 2 -191 0 -191 -13z"/>
<path d="M3133 3613 c9 -2 23 -2 30 0 6 3 -1 5 -18 5 -16 0 -22 -2 -12 -5z"/>
<path d="M5695 3610 c3 -5 15 -10 26 -10 10 0 19 5 19 10 0 6 -12 10 -26 10
-14 0 -23 -4 -19 -10z"/>
<path d="M6755 3610 c-3 -5 -1 -10 4 -10 6 0 11 5 11 10 0 6 -2 10 -4 10 -3 0
-8 -4 -11 -10z"/>
<path d="M5770 3551 c-130 -10 -52 -19 170 -18 118 0 198 2 177 4 -20 2 -35 8
-32 13 6 9 -201 10 -315 1z"/>
<path d="M6775 3550 c-3 -6 1 -7 9 -4 18 7 21 14 7 14 -6 0 -13 -4 -16 -10z"/>
<path d="M6771 3484 c0 -11 3 -14 6 -6 3 7 2 16 -1 19 -3 4 -6 -2 -5 -13z"/>
<path d="M6721 3474 c0 -11 3 -14 6 -6 3 7 2 16 -1 19 -3 4 -6 -2 -5 -13z"/>
<path d="M5848 3453 c7 -3 16 -2 19 1 4 3 -2 6 -13 5 -11 0 -14 -3 -6 -6z"/>
<path d="M2292 3400 c0 -19 2 -27 5 -17 2 9 2 25 0 35 -3 9 -5 1 -5 -18z"/>
<path d="M5795 3280 c-3 -6 1 -7 9 -4 18 7 21 14 7 14 -6 0 -13 -4 -16 -10z"/>
<path d="M5967 3229 c4 -13 8 -18 11 -10 2 7 -1 18 -6 23 -8 8 -9 4 -5 -13z"/>
<path d="M6403 3233 c9 -2 23 -2 30 0 6 3 -1 5 -18 5 -16 0 -22 -2 -12 -5z"/>
<path d="M6273 3193 c9 -2 25 -2 35 0 9 3 1 5 -18 5 -19 0 -27 -2 -17 -5z"/>
<path d="M2853 3173 c9 -2 25 -2 35 0 9 3 1 5 -18 5 -19 0 -27 -2 -17 -5z"/>
<path d="M6565 3153 c-54 -9 -165 -48 -165 -59 0 -19 66 -64 94 -64 14 0 25 3
24 8 -2 4 2 8 7 10 13 4 35 44 29 53 -2 4 3 10 12 13 8 3 12 11 9 16 -4 6 -3
10 2 9 17 -3 33 1 33 9 0 9 -11 10 -45 5z"/>
<path d="M3018 3133 c7 -3 16 -2 19 1 4 3 -2 6 -13 5 -11 0 -14 -3 -6 -6z"/>
<path d="M6595 3070 c-8 -24 2 -60 16 -60 6 0 7 5 4 10 -3 6 -2 10 4 10 5 0
12 -8 14 -17 3 -10 5 -4 6 14 0 17 -2 38 -5 47 -9 22 -31 20 -39 -4z"/>
<path d="M6353 3063 c9 -2 23 -2 30 0 6 3 -1 5 -18 5 -16 0 -22 -2 -12 -5z"/>
<path d="M6582 2995 c0 -16 2 -22 5 -12 2 9 2 23 0 30 -3 6 -5 -1 -5 -18z"/>
<path d="M6355 2990 c3 -5 14 -10 23 -10 15 0 15 2 2 10 -20 13 -33 13 -25 0z"/>
<path d="M6400 2971 c0 -6 4 -11 9 -11 6 0 12 -15 14 -32 l4 -33 1 31 c1 18
-5 37 -13 44 -10 9 -15 9 -15 1z"/>
<path d="M6620 2970 c0 -5 -7 -10 -15 -10 -9 0 -15 -10 -16 -22 -1 -22 -1 -22
-9 2 -7 23 -8 22 -9 -10 -1 -35 -20 -73 -51 -98 -12 -11 -11 -11 10 -1 14 6
33 21 43 33 10 11 16 15 12 8 -6 -11 -3 -12 13 -3 11 6 56 12 99 13 l78 2 -75
6 -75 6 80 3 c44 1 89 6 100 10 16 7 14 9 -14 14 -19 4 -62 7 -97 7 -54 0 -64
-3 -69 -20 -3 -11 -14 -20 -23 -20 -16 1 -16 2 -1 13 16 12 37 77 25 77 -3 0
-6 -4 -6 -10z m73 -57 c-7 -2 -21 -2 -30 0 -10 3 -4 5 12 5 17 0 24 -2 18 -5z"/>
<path d="M6791 2964 c0 -11 3 -14 6 -6 3 7 2 16 -1 19 -3 4 -6 -2 -5 -13z"/>
<path d="M6489 2853 c-13 -16 -12 -17 4 -4 16 13 21 21 13 21 -2 0 -10 -8 -17
-17z"/>
<path d="M6478 2703 c7 -3 16 -2 19 1 4 3 -2 6 -13 5 -11 0 -14 -3 -6 -6z"/>
<path d="M2536 2562 c-22 -31 -39 -64 -39 -74 1 -12 -3 -16 -10 -11 -7 4 -6 0
2 -10 7 -9 17 -15 21 -12 5 3 12 0 16 -6 4 -8 3 -9 -4 -5 -7 4 -12 3 -12 -3 0
-5 9 -13 20 -16 12 -4 17 -11 14 -18 -4 -7 -3 -8 2 -4 5 5 10 13 10 18 1 5 3
12 4 17 2 4 3 18 4 32 1 29 38 37 58 12 10 -13 10 -14 1 -8 -7 4 -13 3 -13 -3
0 -5 5 -13 10 -16 6 -4 7 -11 4 -17 -4 -6 -2 -8 4 -4 5 3 12 3 15 -1 2 -5 3
-3 2 2 -2 6 3 16 11 22 10 10 14 10 17 0 3 -7 6 -4 6 6 1 10 5 16 10 12 5 -3
12 -1 16 5 3 5 -1 10 -9 10 -9 0 -15 3 -14 8 2 4 -9 23 -25 43 -15 20 -27 41
-27 48 0 9 -10 11 -32 5 -29 -6 -31 -5 -19 10 7 9 10 16 5 16 -5 -1 -27 -26
-48 -58z"/>
<path d="M6700 2586 c0 -2 7 -6 15 -10 8 -3 15 -1 15 4 0 6 -7 10 -15 10 -8 0
-15 -2 -15 -4z"/>
<path d="M2480 2435 c-11 -13 -10 -14 4 -9 9 3 16 10 16 15 0 13 -6 11 -20 -6z"/>
<path d="M2720 2430 c-9 -6 -10 -10 -3 -10 6 0 15 5 18 10 8 12 4 12 -15 0z"/>
<path d="M3100 2411 c0 -25 6 -27 13 -6 4 8 2 17 -3 20 -6 4 -10 -3 -10 -14z"/>
<path d="M6463 2413 c15 -2 37 -2 50 0 12 2 0 4 -28 4 -27 0 -38 -2 -22 -4z"/>
<path d="M2575 2400 c-4 -6 -3 -16 3 -22 13 -13 23 4 13 21 -7 10 -10 10 -16
1z"/>
<path d="M6548 2403 c6 -2 18 -2 25 0 6 3 1 5 -13 5 -14 0 -19 -2 -12 -5z"/>
<path d="M6660 2400 c0 -5 -10 -11 -22 -13 -13 -2 32 -5 100 -6 118 -1 159 10
87 23 -21 4 -42 2 -55 -6 -16 -10 -22 -10 -28 -1 -5 7 -13 9 -21 3 -8 -4 -25
-4 -38 1 -13 5 -23 5 -23 -1z"/>
<path d="M2529 2363 c-13 -16 -12 -17 4 -4 9 7 17 15 17 17 0 8 -8 3 -21 -13z"/>
<path d="M2596 2333 c-6 -14 -5 -15 5 -6 7 7 10 15 7 18 -3 3 -9 -2 -12 -12z"/>
<path d="M2841 2334 c0 -11 3 -14 6 -6 3 7 2 16 -1 19 -3 4 -6 -2 -5 -13z"/>
<path d="M3115 2340 c-3 -6 1 -7 9 -4 18 7 21 14 7 14 -6 0 -13 -4 -16 -10z"/>
<path d="M2760 2315 c-7 -8 -9 -15 -4 -16 5 0 0 -4 -11 -9 -16 -7 -17 -9 -3
-9 17 -1 31 14 34 37 3 16 -1 15 -16 -3z"/>
<path d="M3086 2279 c-8 -42 0 -50 9 -9 4 17 5 34 2 36 -2 3 -7 -10 -11 -27z"/>
<path d="M2486 2248 c14 -24 41 -59 59 -78 17 -19 42 -52 54 -72 24 -41 31
-46 31 -24 0 8 -21 37 -46 65 -25 28 -47 57 -48 65 -2 14 -61 86 -71 86 -3 0
7 -19 21 -42z"/>
<path d="M2760 2268 c-14 -12 -18 -19 -9 -15 11 4 16 0 15 -11 0 -9 5 -17 12
-18 6 -1 13 -2 15 -4 12 -10 37 -5 37 7 0 12 -3 13 -14 4 -18 -15 -37 8 -29
37 7 27 5 27 -27 0z"/>
<path d="M2594 2269 c-3 -6 -17 -8 -32 -4 -25 6 -26 6 -9 -13 9 -10 14 -22 10
-27 -5 -4 -2 -5 5 -1 7 5 11 10 8 13 -3 3 5 14 17 24 12 10 19 18 15 19 -4 0
-10 -5 -14 -11z"/>
<path d="M2610 2233 c-20 -26 -25 -49 -14 -77 5 -13 9 -12 25 8 10 13 19 28
19 32 0 4 -7 -1 -15 -12 -11 -15 -15 -16 -16 -4 -4 45 16 77 37 59 9 -7 14 -8
14 -1 0 23 -30 20 -50 -5z"/>
<path d="M6358 2253 c7 -3 16 -2 19 1 4 3 -2 6 -13 5 -11 0 -14 -3 -6 -6z"/>
<path d="M3100 2191 c-72 -47 -94 -67 -82 -75 6 -3 15 1 20 11 14 24 55 26 49
1 -8 -28 1 -22 19 15 10 17 24 37 32 43 8 6 13 16 11 23 -3 7 -20 1 -49 -18z"/>
<path d="M2777 2173 c3 -7 6 -13 8 -13 2 0 5 6 8 13 3 8 -1 14 -8 14 -7 0 -11
-6 -8 -14z"/>
<path d="M6353 2183 c9 -2 23 -2 30 0 6 3 -1 5 -18 5 -16 0 -22 -2 -12 -5z"/>
<path d="M968 2163 c7 -3 16 -2 19 1 4 3 -2 6 -13 5 -11 0 -14 -3 -6 -6z"/>
<path d="M1008 2163 c7 -3 16 -2 19 1 4 3 -2 6 -13 5 -11 0 -14 -3 -6 -6z"/>
<path d="M2650 2155 c-6 -8 -10 -19 -8 -24 1 -6 8 1 15 14 13 28 11 31 -7 10z"/>
<path d="M2516 2145 c4 -8 11 -15 16 -15 6 0 5 6 -2 15 -7 8 -14 15 -16 15 -2
0 -1 -7 2 -15z"/>
<path d="M2938 2123 c6 -2 18 -2 25 0 6 3 1 5 -13 5 -14 0 -19 -2 -12 -5z"/>
<path d="M2775 2109 c-16 -7 -13 -8 12 -4 39 5 71 -4 53 -15 -7 -5 -9 -13 -5
-21 6 -9 10 -8 15 7 4 10 7 23 6 28 -1 14 -57 17 -81 5z"/>
<path d="M2570 2080 c11 -16 26 -33 32 -36 7 -4 -1 9 -16 29 -34 44 -46 50
-16 7z"/>
<path d="M978 2083 c6 -2 18 -2 25 0 6 3 1 5 -13 5 -14 0 -19 -2 -12 -5z"/>
<path d="M2705 2080 c3 -5 8 -10 11 -10 2 0 4 5 4 10 0 6 -5 10 -11 10 -5 0
-7 -4 -4 -10z"/>
<path d="M2868 2053 c7 -3 16 -2 19 1 4 3 -2 6 -13 5 -11 0 -14 -3 -6 -6z"/>
<path d="M2985 2051 c-3 -5 -2 -12 3 -15 5 -3 9 1 9 9 0 17 -3 19 -12 6z"/>
<path d="M2908 2038 c6 -6 18 -8 28 -6 14 3 12 5 -9 10 -19 3 -25 2 -19 -4z"/>
<path d="M2585 2019 c-4 -6 -5 -12 -2 -15 2 -3 7 2 10 11 7 17 1 20 -8 4z"/>
<path d="M2813 2020 c-28 -11 -30 -20 -4 -13 10 3 22 0 26 -6 3 -6 1 -10 -5
-9 -7 2 -14 -5 -15 -14 -2 -13 3 -18 21 -18 17 0 23 -4 19 -12 -4 -7 1 -4 10
7 15 18 14 21 -10 38 -14 10 -23 23 -19 28 6 11 6 11 -23 -1z"/>
<path d="M2978 2014 c12 -8 30 -13 40 -11 13 4 12 5 -5 6 -12 0 -25 6 -28 11
-3 6 -11 10 -18 10 -6 0 -1 -7 11 -16z"/>
<path d="M2552 1995 c6 -14 13 -23 16 -21 7 7 -9 46 -18 46 -5 0 -4 -11 2 -25z"/>
<path d="M2715 2010 c-3 -6 1 -7 9 -4 18 7 21 14 7 14 -6 0 -13 -4 -16 -10z"/>
<path d="M2890 2006 c0 -2 7 -9 15 -16 13 -11 14 -10 9 4 -5 14 -24 23 -24 12z"/>
<path d="M773 1973 c26 -2 67 -2 90 0 23 2 2 3 -48 3 -49 0 -68 -1 -42 -3z"/>
<path d="M2626 1965 c4 -8 8 -15 10 -15 2 0 4 7 4 15 0 8 -4 15 -10 15 -5 0
-7 -7 -4 -15z"/>
<path d="M2781 1971 c-7 -5 -12 -14 -10 -20 2 -6 10 -2 17 9 14 22 13 23 -7
11z"/>
<path d="M6587 1954 c-4 -4 3 -20 14 -35 11 -16 17 -33 14 -39 -3 -5 -2 -10 3
-10 6 0 8 -10 4 -22 -3 -13 -1 -19 6 -14 7 4 7 -3 -1 -24 -7 -19 -17 -28 -25
-25 -7 2 -10 0 -7 -5 3 -6 -1 -10 -9 -10 -8 0 -30 -14 -47 -31 -30 -29 -30
-31 -8 -27 13 1 24 10 24 18 0 8 7 15 15 15 8 0 14 -6 12 -13 -2 -9 10 -12 43
-11 39 2 45 6 45 25 0 20 -3 21 -36 14 l-36 -8 24 26 c51 57 52 60 33 88 -12
18 -13 24 -4 19 8 -4 3 3 -11 15 -14 12 -18 18 -10 14 8 -4 4 5 -9 19 -28 30
-26 29 -34 21z"/>
<path d="M2800 1942 c0 -4 9 -8 20 -8 11 0 20 4 20 8 0 4 -9 8 -20 8 -11 0
-20 -4 -20 -8z"/>
<path d="M740 1850 c-18 -6 -2 -8 53 -9 43 -1 76 3 73 7 -7 11 -95 13 -126 2z"/>
<path d="M905 1850 c-4 -6 5 -10 20 -10 15 0 24 4 20 10 -3 6 -12 10 -20 10
-8 0 -17 -4 -20 -10z"/>
<path d="M968 1853 c7 -3 16 -2 19 1 4 3 -2 6 -13 5 -11 0 -14 -3 -6 -6z"/>
<path d="M1048 1843 c12 -2 30 -2 40 0 9 3 -1 5 -23 4 -22 0 -30 -2 -17 -4z"/>
<path d="M1089 1773 c-15 -2 -35 -14 -45 -25 -11 -12 -14 -19 -9 -17 6 2 27
11 48 19 20 8 37 18 37 22 0 4 -1 7 -2 7 -2 -1 -15 -4 -29 -6z"/>
<path d="M6620 1665 c-19 -23 -38 -41 -42 -38 -4 2 -12 -5 -17 -16 -9 -16 -8
-18 9 -14 11 3 22 14 25 24 4 10 9 18 13 16 4 -1 8 3 10 8 2 6 13 20 24 32 12
13 20 25 17 27 -2 2 -20 -16 -39 -39z"/>
<path d="M1038 1683 c23 -2 59 -2 80 0 20 2 1 4 -43 4 -44 0 -61 -2 -37 -4z"/>
<path d="M1004 1641 c10 -15 66 -41 66 -30 0 5 -8 12 -17 15 -10 3 -26 10 -37
15 -12 7 -16 7 -12 0z"/>
<path d="M1011 1584 c0 -11 3 -14 6 -6 3 7 2 16 -1 19 -3 4 -6 -2 -5 -13z"/>
<path d="M6586 1445 c-11 -8 -15 -15 -9 -15 6 0 16 7 23 15 16 19 11 19 -14 0z"/>
<path d="M1168 1323 c7 -3 16 -2 19 1 4 3 -2 6 -13 5 -11 0 -14 -3 -6 -6z"/>
<path d="M6403 1281 c-10 -10 -34 -22 -53 -26 -60 -11 -70 -16 -70 -31 0 -11
19 -14 93 -15 50 -1 95 -1 98 -1 3 1 6 -5 6 -13 0 -8 -4 -12 -9 -9 -4 3 -8
-43 -7 -103 l1 -108 13 70 c7 39 14 95 14 126 1 50 -2 59 -24 73 -14 9 -25 23
-25 31 0 23 -18 27 -37 6z"/>
<path d="M6633 1213 c9 -2 25 -2 35 0 9 3 1 5 -18 5 -19 0 -27 -2 -17 -5z"/>
<path d="M6444 1085 c0 -60 1 -84 3 -52 2 32 2 81 0 110 -2 29 -3 3 -3 -58z"/>
<path d="M6492 1040 c0 -19 2 -27 5 -17 2 9 2 25 0 35 -3 9 -5 1 -5 -18z"/>
<path d="M893 984 c-28 -12 -11 -24 32 -24 25 0 45 5 45 10 0 6 -6 10 -12 10
-7 0 -22 2 -33 5 -11 2 -26 2 -32 -1z"/>
<path d="M1262 953 c2 -10 10 -18 18 -18 22 0 18 29 -3 33 -14 3 -18 -1 -15
-15z"/>
</g>
</svg>
